PathFileType	4	(X/Y/Z)	Patient4_TMGait_0pt5_02_right_20.trc.trc
DataRate	CameraRate	NumFrames	NumMarkers	Units	OrigDataRate	OrigDataStartFrame	OrigNumFrames
76.086956521739	76.086956521739	5	33	mm	76.086956521739	53	       141
Frame#	Time	Sacral			L.Shoulder			Chest			R.Shoulder			Neck			R.ASIS			L.ASIS			R.Thigh.Superior			R.Thigh.Lateral			R.Thigh.Inferior			R.Patella			L.Thigh.Superior			L.Thigh.Lateral			L.Thigh.Inferior			L.Patella			L.Shank.Superior			L.Shank.Lateral			L.Shank.Inferior			R.Shank.Superior			R.Shank.Lateral			R.Shank.Inferior			R.Heel			R.Midfoot.Superior			R.Midfoot.Lateral			R.Toe			L.Heel			L.Midfoot.Lateral			L.Midfoot.Superior			L.Toe			L.Elbow			L.Wrist			R.Elbow			R.Wrist			
		X1	Y1	Z1	X2	Y2	Z2	X3	Y3	Z3	X4	Y4	Z4	X5	Y5	Z5	X6	Y6	Z6	X7	Y7	Z7	X8	Y8	Z8	X9	Y9	Z9	X10	Y10	Z10	X11	Y11	Z11	X12	Y12	Z12	X13	Y13	Z13	X14	Y14	Z14	X15	Y15	Z15	X16	Y16	Z16	X17	Y17	Z17	X18	Y18	Z18	X19	Y19	Z19	X20	Y20	Z20	X21	Y21	Z21	X22	Y22	Z22	X23	Y23	Z23	X24	Y24	Z24	X25	Y25	Z25	X26	Y26	Z26	X27	Y27	Z27	X28	Y28	Z28	X29	Y29	Z29	X30	Y30	Z30	X31	Y31	Z31	X32	Y32	Z32	X33	Y33	Z33	

53	26.633428571429	600.951749209577	1021.501451602692	537.715458179517	828.442900858515	1419.092742891899	340.225283426257	927.892565726248	1343.599744400664	501.555209002879	860.359715826163	1433.806978292874	675.280928605860	841.032607672552	1485.007057743219	488.462313756168	824.450360933907	934.455130616670	647.836202538064	805.509712778677	959.708697083906	375.203739027321	864.196025177060	738.460759941235	610.296912264949	783.099256320430	630.218742036158	667.363188795207	856.415747302379	579.426933321602	582.693739338933	856.792267148275	488.360032801367	585.792456368167	888.301990840119	788.672561858581	411.909447166012	854.205430773181	663.423871741202	331.378488446625	952.271076499000	606.212988612700	404.277467688197	979.409314173495	530.527963634565	399.252592342743	947.243236026556	456.376593590805	382.159847088615	856.863014137537	349.767809024958	318.253409501445	911.110476898929	230.308287768671	372.763271588506	823.105873225367	400.754747112990	590.896959788735	748.162997705379	299.371802102677	650.892370229918	782.585799355656	204.483107367420	584.222581982307	638.408248868203	44.223276898225	553.380426183847	811.023396653709	96.686381868671	587.686900830142	722.229509679915	37.042478370741	627.255713728340	930.670764205901	40.275212713848	615.425052891132	784.812839623055	69.892601740378	393.504747491716	860.847127814289	70.958526965991	315.644787257231	943.939257343607	130.723766989337	345.438419631539	1070.198343138299	81.146050217381	317.076108533046	726.294538366265	1071.210611171475	244.707388622437	740.035593868465	811.728021524870	228.022791225448	820.142840998968	1102.850408841960	823.990339254037	1024.384165208162	948.029933166620	802.413618946054	
54	26.646571428571	599.964370674162	1022.092313371668	539.212877496604	826.868472041114	1419.290265258698	340.355755306901	927.488959372821	1343.333899512761	500.729615751604	861.748827030287	1433.647368977118	675.132789052437	840.933365304716	1485.008488748773	488.495432863808	823.726045833624	934.396914419313	647.553971693405	803.389469915434	959.926082719752	374.978810412351	861.815896775849	737.701615790837	610.450369902737	780.010108686249	630.080728756001	667.731329532969	852.680506345491	578.741625067850	582.852034473505	852.400925972697	487.827397796243	585.957601946001	885.788388720090	789.222340158432	411.025261397091	851.361494515043	663.943869130724	330.191666074830	949.726040180783	606.871192054432	402.809349983900	978.072933330523	533.506543875520	398.268807165811	949.810375368601	459.479711433093	381.810173369642	866.750783776766	347.295998340606	317.304231783886	927.317064716117	231.591288584718	373.484945368766	818.205744584166	400.383347954493	591.033105932134	742.905393121134	299.352458619642	651.076310608694	776.703009635399	204.320807755885	584.325565138908	631.840025946686	44.399643451232	553.482117378459	804.475794116853	96.655067910720	587.733977521342	715.657196776084	37.074868727444	627.285914291574	924.070962965710	40.106049753506	615.505902004821	810.453808161459	64.189174674071	393.570410894571	887.867313350928	68.475372098274	317.065722041020	966.770696081883	133.433397241388	347.568921584650	1096.335445000256	90.803695975004	322.311636559345	721.161156933792	1072.250314303061	245.560981925170	734.914030627034	812.712380122408	228.529424049784	828.625581248715	1102.705576764725	824.801399138765	1039.953174373250	959.168873637533	799.392156847501	
55	26.659714285714	599.069001104833	1022.717000260994	540.489711576619	825.383178032555	1419.585948324085	340.410846417345	927.066880721059	1343.154184459279	499.860968566313	862.998244213673	1433.534572474993	674.888704436704	840.754843290208	1485.084400336268	488.473139462681	823.009020875427	934.416790239925	647.198150464935	801.399614358003	960.101286204120	374.677445744760	859.366203910340	736.957419370052	610.576153830653	776.804954309306	629.976243532215	668.046697522801	848.822710662241	578.065367650508	582.978378237734	847.847752378701	487.323105271883	586.089416365862	883.124318420090	789.493329150558	410.143766176004	848.480142466017	664.357622739945	328.835083721521	946.995028056886	607.256017233416	401.310209811873	976.374996518589	536.154809220583	397.198301768338	951.802071342686	462.495061964160	381.247224952711	875.777363422986	345.403496776220	316.445859833714	942.267884047981	233.599573492649	374.063411717631	813.201981367730	400.065641668707	591.155396746837	737.557155451019	299.376714064062	651.248630614817	770.775505436722	204.214465641061	584.438137214317	625.266631714998	44.598803340980	553.588858732635	797.931429461892	96.633619270335	587.783666096746	709.080817244218	37.114694806199	627.322102705910	917.463622695455	39.949074295704	615.581380068758	834.660999755110	60.185313308668	393.978267067417	913.049183883708	67.391998740798	318.563393950421	987.885529669374	136.979911693009	349.439891964048	1120.087640804607	100.893897174211	326.852210152490	716.441636758477	1073.378109299779	246.290060521581	730.574578134958	813.756455725555	228.916148648033	837.205692235900	1102.579487778319	825.083008977561	1054.668659721609	970.229480604900	795.737164465190	
56	26.672857142857	598.253674586584	1023.348387416664	541.526893073038	823.999387729890	1419.943699890513	340.382224549900	926.623526052051	1343.044418584377	498.965397247557	864.077075110886	1433.465572801024	674.547118275475	840.494034663093	1485.214106592185	488.384350851790	822.301115002501	934.493715293225	646.772966104394	799.564982527316	960.231143775419	374.303523912241	856.858424998837	736.226230766178	610.622520475315	773.529731132024	629.896972505770	668.291202161222	844.871437621109	577.393868815262	583.045245156201	843.159287387093	486.830984869056	586.166831937021	880.425190652150	789.543571533452	409.319095609000	845.714387893568	664.694533587265	327.387349044143	944.240252747132	607.442483955764	399.851589284441	974.478424868038	538.472051468897	396.083661615323	953.298279903010	465.356565991250	380.475443533477	883.789981702179	344.060811351526	315.687503136077	955.737082256946	236.128422606804	374.433357028013	808.121690571127	399.785681365791	591.249398549671	732.136789715401	299.434123018328	651.395924130599	764.815335895090	204.150597145343	584.546009597330	618.687272911810	44.811712761064	553.693020800536	791.391546234974	96.624523977534	587.835180077265	702.499336694901	37.161370222237	627.361908048626	910.850179981309	39.810062497606	615.650470804434	856.914535100244	57.678239875590	394.678857749149	935.867623793560	67.467306939704	320.025531600604	1006.943831071754	141.063985447238	350.914678119812	1141.155236925607	110.944666672480	330.408675796284	712.183592692072	1074.539671840779	246.865598372332	726.997566940509	814.814324741651	229.159053329445	845.815135155269	1102.482496882114	824.832550816815	1068.510040735905	981.122323080359	791.476587659401	
57	26.686000000000	597.508089052981	1023.949644387211	542.305841981950	822.717475339143	1420.324793591113	340.260781115001	926.151463796404	1342.985493649278	498.054645117837	864.953472202038	1433.431110660529	674.107316845903	840.143475424624	1485.372584774754	488.218070089303	821.607551109664	934.604118182681	646.286239346220	797.914248978504	960.306003893633	373.860887342485	854.308682083801	735.501094319539	610.551945532952	770.226114983179	629.829869876570	668.452216197143	840.858822387928	576.718193476749	583.034271400987	838.366080852757	486.333747198664	586.174194401641	877.826189454348	789.437036280055	408.587515633363	843.197027868101	664.966423325901	325.926537201131	941.615215758929	607.496691437076	398.481143890949	972.543715581612	540.454496888222	394.958336201362	954.379693849346	467.975738864576	379.524014997260	890.672638016661	343.193779620110	315.005822642269	967.504778209732	238.921846935626	374.550825782376	802.992043381987	399.524772314334	591.302191853561	726.662690179692	299.511487313690	651.505352110054	758.832642586677	204.112043694943	584.634470856379	612.101500795829	45.026929556456	553.786895044314	784.855716603395	96.627787875813	587.885696876644	695.911452754074	37.212907820502	627.401372937392	904.232116583174	39.693803921199	615.712335202845	876.682287453987	56.406534850327	395.548144486862	955.847254036142	68.380210186474	321.333275706317	1023.633139945060	145.316528202866	351.914362601558	1159.291268696595	120.400074831303	332.874470488375	708.414526169857	1075.678828511599	247.255523277345	724.161381408962	815.840571947288	229.232968328516	854.379001751014	1102.422192277031	824.060162929799	1081.460317120750	991.768733440177	786.644495868042	
